# xmcd
#
# Track frame offsets:
#	150
#	11392
#	24893
#	36905
#	50456
#	65487
#	77662
#	88191
#	101216
#	116657
#	130750
#	149337
#
# Disc length: 2197 seconds
#
# Revision: 0
# Processed by: cddbd v1.5.2PL0 Copyright (c) Steve Scherf et al.
# Submitted via: EasyCDDAExtractor 16.0.6.1
#
DISCID=9b08930c
DTITLE=Διονυσίου Στράτος  - Αγάπης Βάσανα-Στρ. Διονυσίου   
DYEAR=1998
DGENRE=Λαϊκή
TTITLE0=Ήταν ψεύτικα [Άκη Πάνου]
TTITLE1=Χτες το βράδυ στην ταβέρνα [Αντ. Ρεπάνη-Παναγιώτη Καμηλιέρη]
TTITLE2=Καρδιά μου αλήτισσα [Αντώνη Ρεπάνη-Μιχάλη Γαβριηλίδη]
TTITLE3=Αφιλότιμη [Γιώργου Χατζηνάσιου-Τάσου Οικονόμου]
TTITLE4=Ο παλιατζής [Αντώνη Ρεπάνη-Δημήτρη Γκούτη] 
TTITLE5=Τ' αγκάθια της καρδιάς σου [Αντώνη Ρεπάνη-Μιχάλη Τουτουντζή]
TTITLE6=Του κόσμου το περίγελο [Άκη Πάνου]
TTITLE7=Αργά, είναι πια αργά [Απόστολου Καλδάρα]
TTITLE8=Άστε με απόψε μοναχό [Αντώνη Ρεπάνη-Μιχάλη Τουτουντζή]
TTITLE9=Βραδιάζει [Θανάση Πολυκανδριώτη-Γιάννη Πάριου]
TTITLE10=Αποκοιμήθηκα [Τόλη Βοσκόπουλου-Μίμη Θειόπουλου]
TTITLE11=Να είχα το κουράγιο [Άκη Πάνου]
EXTD=
EXTT0=
EXTT1=
EXTT2=
EXTT3=
EXTT4=
EXTT5=
EXTT6=
EXTT7=
EXTT8=
EXTT9=
EXTT10=
EXTT11=
PLAYORDER=
